<svg width="57.906" height="36.71" viewBox="0 0 57.906 36.71" xmlns="http://www.w3.org/2000/svg"><g id="svgGroup" stroke-linecap="round" fill-rule="evenodd" font-size="9pt" stroke="#080808" stroke-width="0.25mm" fill="#000000" style="stroke:#080808;stroke-width:0.25mm;fill:#000000"><path d="M 10.491 36.26 Q 11.041 36.31 11.616 36.31 A 3.451 3.451 0 0 1 11.782 36.314 Q 12.163 36.332 12.189 36.443 A 0.073 0.073 0 0 1 12.191 36.46 Q 12.191 36.51 11.993 36.535 A 1.649 1.649 0 0 1 11.991 36.535 A 3.258 3.258 0 0 1 11.704 36.558 A 3.845 3.845 0 0 1 11.566 36.56 L 11.091 36.56 L 10.791 36.56 Q 9.241 36.56 7.741 36.11 Q 6.241 35.66 4.966 34.835 Q 3.691 34.01 2.691 32.81 Q 1.691 31.61 1.191 30.06 A 23.983 23.983 0 0 1 0.218 25.937 A 20.756 20.756 0 0 1 0.041 24.11 A 30.474 30.474 0 0 1 0 22.536 A 29.136 29.136 0 0 1 0.291 18.41 Q 0.463 17.035 0.912 15.346 A 34.403 34.403 0 0 1 1.066 14.785 A 26.938 26.938 0 0 1 2.153 11.705 A 31.162 31.162 0 0 1 2.616 10.66 A 24.836 24.836 0 0 1 4.487 7.345 A 28.455 28.455 0 0 1 5.066 6.51 A 20.179 20.179 0 0 1 8.575 2.773 A 22.488 22.488 0 0 1 8.591 2.76 Q 10.741 0.96 13.366 0.36 Q 15.991 -0.24 18.391 0.16 A 10.811 10.811 0 0 1 21.43 1.123 A 9.777 9.777 0 0 1 22.641 1.835 A 6.654 6.654 0 0 1 24.159 3.254 A 5.685 5.685 0 0 1 25.091 5.06 A 0.443 0.443 0 0 1 25.114 5.119 Q 25.146 5.217 25.178 5.407 A 5.543 5.543 0 0 1 25.191 5.485 Q 25.241 5.81 25.141 5.91 Q 25.091 5.96 24.991 5.66 Q 24.914 5.429 24.837 5.317 A 0.399 0.399 0 0 0 24.791 5.26 Q 22.982 2.805 20.765 1.89 A 7.17 7.17 0 0 0 20.041 1.635 A 10.356 10.356 0 0 0 17.122 1.206 A 9.942 9.942 0 0 0 14.791 1.485 A 13.628 13.628 0 0 0 10.18 3.58 A 15.599 15.599 0 0 0 9.891 3.785 Q 7.591 5.46 6.241 7.51 Q 3.891 11.06 2.666 15.06 Q 1.441 19.06 1.541 23.31 A 26.642 26.642 0 0 0 1.763 26.086 A 31.575 31.575 0 0 0 1.966 27.41 Q 2.341 29.56 3.441 31.51 Q 4.541 33.51 6.466 34.835 A 8.36 8.36 0 0 0 8.592 35.908 A 7.132 7.132 0 0 0 10.491 36.26 Z M 6.541 19.71 A 24.234 24.234 0 0 0 6.291 23.083 A 22.408 22.408 0 0 0 6.291 23.135 Q 6.291 24.81 6.516 26.285 A 13.047 13.047 0 0 0 6.803 27.679 A 9.916 9.916 0 0 0 7.216 28.91 Q 7.691 30.06 8.391 30.81 A 5.122 5.122 0 0 0 9.904 31.847 A 6.169 6.169 0 0 0 10.366 32.035 A 7.204 7.204 0 0 0 12.324 32.44 A 8.496 8.496 0 0 0 12.916 32.46 A 10.589 10.589 0 0 0 14.693 32.304 A 13.072 13.072 0 0 0 15.816 32.06 A 12.289 12.289 0 0 0 18.231 31.137 A 14.221 14.221 0 0 0 18.841 30.81 A 1.522 1.522 0 0 1 18.924 30.758 Q 19.109 30.651 19.201 30.684 A 0.108 0.108 0 0 1 19.241 30.71 A 0.149 0.149 0 0 1 19.262 30.737 Q 19.318 30.826 19.166 30.935 A 14.05 14.05 0 0 1 18.997 31.054 A 10.788 10.788 0 0 1 18.841 31.16 Q 17.541 32.16 16.091 32.76 Q 14.641 33.36 13.166 33.51 A 9.105 9.105 0 0 1 12.244 33.557 A 8.355 8.355 0 0 1 10.316 33.335 Q 8.941 33.01 7.841 32.11 Q 6.791 31.21 6.141 29.935 A 11.06 11.06 0 0 1 5.299 27.698 A 12.74 12.74 0 0 1 5.166 27.135 A 17.694 17.694 0 0 1 4.798 24.166 A 19.433 19.433 0 0 1 4.791 23.96 Q 4.741 22.31 4.891 20.71 A 23.67 23.67 0 0 1 5.793 15.885 A 26.286 26.286 0 0 1 5.891 15.56 Q 6.691 12.96 8.016 10.76 Q 9.341 8.56 11.191 6.91 Q 13.041 5.26 15.341 4.61 A 7.923 7.923 0 0 1 17.349 4.353 A 8.21 8.21 0 0 1 17.691 4.36 Q 18.891 4.41 19.916 4.81 Q 20.941 5.21 21.691 5.985 Q 22.441 6.76 22.691 7.86 A 4.147 4.147 0 0 1 22.78 8.708 A 3.946 3.946 0 0 1 22.491 10.185 Q 22.041 11.31 21.241 12.135 A 4.831 4.831 0 0 1 20.105 13.013 A 4.35 4.35 0 0 1 19.441 13.31 Q 18.441 13.66 17.541 13.31 Q 17.496 13.31 17.472 13.191 A 0.799 0.799 0 0 1 17.466 13.16 A 0.215 0.215 0 0 1 17.464 13.144 Q 17.452 13.013 17.641 13.06 Q 18.241 13.16 19.016 12.785 Q 19.791 12.41 20.416 11.76 A 4.875 4.875 0 0 0 21.306 10.458 A 5.653 5.653 0 0 0 21.416 10.21 A 3.38 3.38 0 0 0 21.684 8.899 A 3.45 3.45 0 0 0 21.641 8.36 Q 21.491 7.66 21.016 7.135 A 3.255 3.255 0 0 0 20.253 6.52 A 4.13 4.13 0 0 0 19.791 6.285 A 5.387 5.387 0 0 0 18.704 5.95 A 6.609 6.609 0 0 0 18.116 5.86 A 5.811 5.811 0 0 0 17.491 5.827 Q 16.858 5.827 16.191 5.96 Q 14.291 6.31 12.666 7.635 A 13.875 13.875 0 0 0 10.201 10.266 A 15.981 15.981 0 0 0 9.791 10.86 A 19.902 19.902 0 0 0 8.024 14.228 A 22.82 22.82 0 0 0 7.691 15.085 A 21.839 21.839 0 0 0 6.625 19.135 A 20.008 20.008 0 0 0 6.541 19.71 Z M 41.541 35.46 A 9.465 9.465 0 0 0 43.14 35.332 Q 44.043 35.177 44.788 34.835 A 5.577 5.577 0 0 0 45.091 34.685 Q 46.541 33.91 47.491 32.635 A 9.078 9.078 0 0 0 48.701 30.399 A 10.696 10.696 0 0 0 48.941 29.685 Q 49.441 28.01 49.591 26.21 Q 49.791 23.96 49.491 21.71 Q 49.191 19.46 48.816 17.235 Q 48.441 15.01 48.141 12.76 Q 47.841 10.51 48.041 8.21 Q 48.22 6.146 49.225 4.847 A 4.775 4.775 0 0 1 49.466 4.56 A 3.868 3.868 0 0 1 51.232 3.468 Q 51.86 3.275 52.62 3.226 A 8.195 8.195 0 0 1 53.141 3.21 A 6.362 6.362 0 0 1 53.781 3.245 Q 54.446 3.313 55.316 3.51 Q 56.641 3.81 57.491 4.36 A 4.911 4.911 0 0 1 57.621 4.45 Q 58.308 4.94 57.341 4.71 Q 56.804 4.576 55.987 4.402 A 76.806 76.806 0 0 0 55.791 4.36 A 14.718 14.718 0 0 0 55.292 4.263 Q 54.839 4.184 54.522 4.166 A 3.114 3.114 0 0 0 54.341 4.16 A 7.522 7.522 0 0 0 52.74 4.323 A 5.662 5.662 0 0 0 50.991 5.01 Q 49.691 5.799 49.426 7.708 A 6.685 6.685 0 0 0 49.391 8.01 A 17.685 17.685 0 0 0 49.287 9.922 A 17.486 17.486 0 0 0 49.491 12.585 Q 49.841 14.86 50.291 17.16 Q 50.741 19.46 51.066 21.76 A 20.328 20.328 0 0 1 51.267 24.608 A 20.219 20.219 0 0 1 51.191 26.36 Q 51.041 28.26 50.441 30.06 Q 49.841 31.86 48.741 33.31 Q 47.641 34.76 46.016 35.635 A 7.198 7.198 0 0 1 43.76 36.387 A 9.614 9.614 0 0 1 42.191 36.51 Q 41.618 36.51 40.724 36.327 A 14.847 14.847 0 0 1 40.641 36.31 Q 39.691 36.11 38.741 35.785 A 10.1 10.1 0 0 1 36.972 34.989 A 10.927 10.927 0 0 1 36.966 34.985 A 5.393 5.393 0 0 1 36.417 34.626 Q 36.153 34.427 35.955 34.217 A 2.648 2.648 0 0 1 35.741 33.96 Q 35.291 33.46 36.041 33.71 Q 36.625 34.019 37.387 34.423 A 3684.579 3684.579 0 0 1 38.116 34.81 A 4.737 4.737 0 0 0 39.147 35.2 Q 40.147 35.459 41.535 35.46 A 9.235 9.235 0 0 0 41.541 35.46 Z M 3.291 17.46 Q 3.691 14.81 4.566 12.31 Q 5.441 9.81 6.866 7.735 Q 8.291 5.66 10.391 4.16 Q 12.491 2.66 15.341 2.06 A 8.947 8.947 0 0 1 16.388 1.917 Q 16.832 1.882 17.316 1.882 A 13.737 13.737 0 0 1 17.591 1.885 A 8.231 8.231 0 0 1 20.052 2.322 A 9.19 9.19 0 0 1 20.091 2.335 Q 21.341 2.76 22.416 3.61 A 5.657 5.657 0 0 1 23.56 4.849 A 7.657 7.657 0 0 1 24.191 5.96 Q 24.688 7.069 24.688 8.148 A 4.672 4.672 0 0 1 24.641 8.81 A 7.256 7.256 0 0 1 24.153 10.605 A 6.479 6.479 0 0 1 23.791 11.335 A 6.661 6.661 0 0 1 22.62 12.838 A 6.119 6.119 0 0 1 22.191 13.21 A 5.014 5.014 0 0 1 21.5 13.673 Q 21.095 13.896 20.699 13.995 A 2.686 2.686 0 0 1 20.341 14.06 A 4.023 4.023 0 0 1 20.225 14.079 Q 19.785 14.146 19.741 14.035 A 0.053 0.053 0 0 1 19.737 14.015 Q 19.737 13.895 20.291 13.71 Q 21.241 13.41 22.216 12.185 A 5.236 5.236 0 0 0 23.115 10.445 A 7.298 7.298 0 0 0 23.391 9.06 A 4.019 4.019 0 0 0 23.413 8.639 A 4.08 4.08 0 0 0 23.141 7.185 Q 22.791 6.26 22.141 5.56 A 6.115 6.115 0 0 0 20.819 4.492 A 6.999 6.999 0 0 0 20.591 4.36 Q 19.691 3.86 18.691 3.71 A 10.215 10.215 0 0 0 17.472 3.612 Q 16.253 3.589 15.158 3.884 A 7.508 7.508 0 0 0 14.741 4.01 A 13.62 13.62 0 0 0 12.962 4.739 A 10.687 10.687 0 0 0 11.616 5.535 Q 10.482 6.326 9.715 7.099 A 9.03 9.03 0 0 0 9.466 7.36 A 42.266 42.266 0 0 0 9.135 7.725 Q 8.7 8.211 8.514 8.457 A 2.242 2.242 0 0 0 8.441 8.56 Q 6.891 10.51 5.741 12.785 Q 4.591 15.06 3.841 17.56 Q 3.841 17.61 3.766 17.91 Q 3.691 18.21 3.616 18.535 A 5.532 5.532 0 0 1 3.512 18.922 A 4.544 4.544 0 0 1 3.441 19.135 A 2.825 2.825 0 0 1 3.408 19.221 Q 3.332 19.41 3.291 19.41 Q 3.202 19.41 3.192 19.173 A 1.514 1.514 0 0 1 3.191 19.11 L 3.191 18.485 A 3.845 3.845 0 0 1 3.229 17.935 A 3.499 3.499 0 0 1 3.241 17.86 Q 3.291 17.56 3.291 17.46 Z M 43.399 5.55 A 10.167 10.167 0 0 0 42.891 7.76 A 19.305 19.305 0 0 0 42.821 9.398 A 19.767 19.767 0 0 0 43.066 12.485 Q 43.441 14.86 43.941 17.26 Q 44.441 19.66 44.816 22.06 A 19.981 19.981 0 0 1 45.06 25.148 A 18.601 18.601 0 0 1 44.991 26.76 Q 44.882 27.854 44.63 28.753 A 7.612 7.612 0 0 1 44.116 30.11 Q 43.441 31.46 41.641 32.46 A 5.571 5.571 0 0 0 41.61 32.477 Q 41.296 32.654 41.149 32.793 A 0.639 0.639 0 0 0 41.066 32.885 Q 40.952 33.045 41.607 32.975 A 7 7 0 0 0 41.741 32.96 Q 42.791 32.81 43.641 32.185 Q 44.491 31.56 45.066 30.66 Q 45.641 29.76 45.991 28.71 Q 46.341 27.66 46.441 26.71 A 20.132 20.132 0 0 0 46.51 25.037 A 20.6 20.6 0 0 0 46.266 21.885 Q 45.891 19.46 45.366 17.06 Q 44.841 14.66 44.441 12.235 A 19.769 19.769 0 0 1 44.174 9.013 A 19.292 19.292 0 0 1 44.241 7.41 Q 44.341 6.16 44.866 4.985 Q 45.391 3.81 46.241 2.86 Q 47.091 1.91 48.241 1.26 Q 49.391 0.61 50.741 0.36 A 4.724 4.724 0 0 0 50.808 0.35 Q 51.093 0.305 51.116 0.26 Q 51.136 0.217 51.014 0.175 A 0.94 0.94 0 0 0 50.966 0.16 Q 50.876 0.134 50.772 0.115 A 2.896 2.896 0 0 0 50.566 0.085 A 17.245 17.245 0 0 0 50.538 0.082 Q 50.378 0.064 50.316 0.061 A 0.462 0.462 0 0 0 50.291 0.06 Q 48.641 0.06 47.316 0.735 Q 45.991 1.41 45.066 2.535 Q 44.141 3.66 43.591 5.035 A 11.733 11.733 0 0 0 43.399 5.55 Z M 28.867 36.364 A 4.313 4.313 0 0 0 28.841 36.31 A 12.775 12.775 0 0 1 28.555 35.719 A 13.996 13.996 0 0 1 27.641 32.935 Q 27.241 31.11 27.166 29.185 A 24.68 24.68 0 0 1 27.147 28.224 A 24.333 24.333 0 0 1 27.316 25.36 A 37.769 37.769 0 0 1 27.375 24.887 A 34.264 34.264 0 0 1 27.941 21.71 Q 28.591 18.96 29.491 16.16 Q 30.391 13.36 31.116 10.66 A 35.785 35.785 0 0 0 31.371 9.652 A 31.715 31.715 0 0 0 32.091 5.385 A 13.893 13.893 0 0 0 32.157 4.042 A 12.905 12.905 0 0 0 31.641 0.41 Q 31.641 0.369 31.591 0.263 A 2.029 2.029 0 0 0 31.566 0.21 A 1.035 1.035 0 0 0 31.545 0.17 Q 31.503 0.094 31.469 0.071 A 0.05 0.05 0 0 0 31.441 0.06 Q 31.341 0.11 31.341 0.36 A 18.522 18.522 0 0 1 31.346 0.781 Q 31.346 1.408 31.304 2.052 A 22.539 22.539 0 0 1 30.916 4.96 A 58.607 58.607 0 0 1 30.663 6.171 A 67.032 67.032 0 0 1 29.716 9.935 A 181.886 181.886 0 0 1 29.533 10.581 A 200.662 200.662 0 0 1 28.141 15.235 Q 27.291 17.96 26.641 20.71 Q 26.191 22.71 25.916 24.81 A 22.037 22.037 0 0 0 25.727 27.674 A 21.127 21.127 0 0 0 25.766 28.96 Q 25.891 31.01 26.541 32.935 A 10.332 10.332 0 0 0 26.787 33.589 A 11.048 11.048 0 0 0 28.591 36.51 A 0.141 0.141 0 0 1 28.617 36.513 Q 28.664 36.522 28.741 36.56 A 0.523 0.523 0 0 0 28.788 36.581 A 0.426 0.426 0 0 0 28.941 36.61 Q 28.986 36.61 28.867 36.364 Z M 52.719 1.231 A 6.506 6.506 0 0 0 51.791 1.16 A 7.353 7.353 0 0 0 51.107 1.191 A 6.062 6.062 0 0 0 49.241 1.66 Q 48.091 2.16 47.266 3.035 A 6.541 6.541 0 0 0 47.065 3.258 A 6.961 6.961 0 0 0 45.941 5.085 Q 45.441 6.26 45.291 7.61 A 20.72 20.72 0 0 0 45.197 9.575 A 20.009 20.009 0 0 0 45.316 11.76 Q 45.541 13.81 45.941 15.86 Q 46.341 17.91 46.791 19.935 Q 47.241 21.96 47.541 23.96 Q 47.572 24.085 47.613 24.239 A 31.555 31.555 0 0 0 47.666 24.435 A 4.643 4.643 0 0 0 47.68 24.487 Q 47.725 24.642 47.769 24.754 A 1.357 1.357 0 0 0 47.816 24.86 A 0.5 0.5 0 0 0 47.817 24.862 Q 47.892 25.009 47.966 24.91 A 0.114 0.114 0 0 0 47.968 24.907 Q 48.028 24.822 48.071 24.45 A 7.329 7.329 0 0 0 48.091 24.26 A 17.869 17.869 0 0 0 48.185 22.436 A 17.211 17.211 0 0 0 48.066 20.41 Q 47.841 18.51 47.541 16.61 Q 47.241 14.71 47.016 12.785 Q 46.791 10.86 46.941 8.91 A 10.433 10.433 0 0 1 47.28 6.871 A 7.468 7.468 0 0 1 48.541 4.285 Q 49.904 2.509 52.877 2.509 A 10.178 10.178 0 0 1 53.041 2.51 A 6.047 6.047 0 0 1 53.509 2.528 A 5.04 5.04 0 0 1 54.616 2.735 A 10.139 10.139 0 0 0 54.797 2.79 A 9.071 9.071 0 0 0 56.041 3.06 Q 56.683 3.244 56.273 2.838 A 2.684 2.684 0 0 0 56.191 2.76 A 4.103 4.103 0 0 0 55.233 2.01 A 5.185 5.185 0 0 0 54.091 1.535 Q 53.357 1.323 52.719 1.231 Z M 32.2 26.487 A 61.033 61.033 0 0 0 33.441 22.21 A 46.971 46.971 0 0 1 33.598 21.553 Q 33.882 20.4 34.341 18.735 Q 34.941 16.56 35.391 14.235 A 37.351 37.351 0 0 0 35.596 13.082 A 32.894 32.894 0 0 0 35.966 9.735 A 14.738 14.738 0 0 0 35.976 9.535 Q 36.032 8.259 35.847 7.277 A 5.543 5.543 0 0 0 35.541 6.21 L 35.441 6.01 A 0.43 0.43 0 0 0 35.42 5.972 Q 35.398 5.937 35.375 5.922 A 0.06 0.06 0 0 0 35.341 5.91 Q 35.191 5.91 35.191 6.16 Q 34.991 9.01 34.416 11.485 Q 33.841 13.96 33.141 16.31 Q 31.991 20.11 31.066 23.86 Q 30.141 27.61 29.991 31.36 Q 29.991 31.61 30.016 31.86 Q 30.031 32.015 30.076 32.074 A 0.08 0.08 0 0 0 30.141 32.11 A 0.108 0.108 0 0 0 30.146 32.12 Q 30.19 32.188 30.268 32.034 A 1.105 1.105 0 0 0 30.291 31.985 A 12.363 12.363 0 0 0 30.341 31.871 A 14.152 14.152 0 0 0 30.491 31.51 Q 30.857 30.441 31.285 29.183 A 3130.903 3130.903 0 0 0 31.991 27.11 A 67.352 67.352 0 0 0 32.2 26.487 Z M 32.688 15.183 A 65.585 65.585 0 0 0 33.891 11.11 A 9.831 9.831 0 0 0 33.961 10.828 Q 34.159 9.972 34.266 8.86 Q 34.391 7.56 34.316 6.235 A 14.966 14.966 0 0 0 34.294 5.906 A 13.367 13.367 0 0 0 33.941 3.71 A 8.037 8.037 0 0 0 33.618 2.694 A 5.913 5.913 0 0 0 33.091 1.66 Q 32.991 1.56 32.941 1.435 A 0.364 0.364 0 0 0 32.934 1.419 Q 32.884 1.31 32.791 1.31 Q 32.741 1.31 32.691 1.435 Q 32.651 1.534 32.706 1.68 A 0.822 0.822 0 0 0 32.741 1.76 A 2.958 2.958 0 0 1 32.822 2.098 Q 32.929 2.684 32.891 3.56 Q 32.841 4.71 32.641 6.11 A 68.504 68.504 0 0 1 32.536 6.816 A 76.76 76.76 0 0 1 32.166 9.01 Q 31.891 10.51 31.616 11.81 Q 31.444 12.623 31.292 13.289 A 56.019 56.019 0 0 1 31.116 14.035 A 57.028 57.028 0 0 1 31.038 14.353 Q 30.873 15.015 30.791 15.26 Q 30.591 15.91 30.391 16.81 Q 30.191 17.71 29.991 18.66 A 48.247 48.247 0 0 0 29.942 18.897 A 43.978 43.978 0 0 0 29.641 20.51 A 28.486 28.486 0 0 0 29.555 21.056 Q 29.517 21.313 29.49 21.54 A 12.608 12.608 0 0 0 29.441 22.01 Q 29.441 22.16 29.416 22.585 A 3.295 3.295 0 0 0 29.413 22.636 Q 29.402 22.904 29.446 22.98 A 0.052 0.052 0 0 0 29.491 23.01 Q 29.655 23.051 29.786 22.806 A 1.233 1.233 0 0 0 29.841 22.685 Q 29.963 22.38 30.019 22.257 A 1.421 1.421 0 0 1 30.041 22.21 A 88.567 88.567 0 0 0 30.586 20.891 A 100.78 100.78 0 0 0 32.166 16.71 A 75.929 75.929 0 0 0 32.688 15.183 Z M 13.241 34.41 Q 15.041 34.11 16.716 33.31 Q 18.391 32.51 19.741 31.26 Q 19.822 31.219 20.035 31.014 A 8.161 8.161 0 0 0 20.141 30.91 A 2.045 2.045 0 0 1 20.221 30.834 Q 20.455 30.624 20.541 30.71 Q 20.633 30.802 20.514 30.978 A 0.796 0.796 0 0 1 20.491 31.01 Q 20.341 31.21 20.241 31.36 A 7.806 7.806 0 0 1 17.767 33.647 A 9.04 9.04 0 0 1 17.616 33.735 Q 15.991 34.66 14.241 35.21 A 8.648 8.648 0 0 1 12.077 35.513 Q 11.996 35.515 11.915 35.515 A 10.25 10.25 0 0 1 11.141 35.485 Q 9.491 35.36 8.041 34.66 A 5.161 5.161 0 0 1 7.861 34.576 Q 7.614 34.455 7.52 34.366 A 0.307 0.307 0 0 1 7.491 34.335 A 0.376 0.376 0 0 1 7.469 34.305 Q 7.414 34.22 7.467 34.175 A 0.123 0.123 0 0 1 7.491 34.16 Q 7.573 34.119 7.738 34.112 A 1.733 1.733 0 0 1 7.816 34.11 A 1.808 1.808 0 0 1 8.136 34.138 A 1.597 1.597 0 0 1 8.241 34.16 A 13.526 13.526 0 0 0 8.756 34.243 Q 9.02 34.28 9.315 34.313 A 23.57 23.57 0 0 0 9.516 34.335 Q 10.241 34.41 10.966 34.435 A 44.544 44.544 0 0 0 11.66 34.454 A 33.522 33.522 0 0 0 12.291 34.46 A 11.757 11.757 0 0 0 12.642 34.455 Q 12.962 34.446 13.189 34.417 A 3.17 3.17 0 0 0 13.241 34.41 Z M 45.691 32.26 L 45.691 32.41 A 0.926 0.926 0 0 1 45.565 32.867 Q 45.446 33.079 45.216 33.285 A 4.561 4.561 0 0 1 44.685 33.691 Q 44.4 33.879 44.063 34.049 A 7.328 7.328 0 0 1 44.041 34.06 Q 43.341 34.41 42.466 34.61 Q 41.591 34.81 40.691 34.81 Q 40.375 34.81 39.855 34.708 A 9.864 9.864 0 0 1 39.741 34.685 A 8.892 8.892 0 0 1 38.749 34.416 A 10.061 10.061 0 0 1 38.516 34.335 Q 37.891 34.11 37.341 33.81 A 2.491 2.491 0 0 1 37.008 33.595 Q 36.723 33.374 36.591 33.11 Q 36.108 32.583 36.203 32.461 A 0.083 0.083 0 0 1 36.241 32.435 Q 36.42 32.368 36.718 32.56 A 1.856 1.856 0 0 1 36.791 32.61 Q 37.478 32.825 38.332 33.169 A 30.953 30.953 0 0 1 38.616 33.285 A 4.974 4.974 0 0 0 39.544 33.56 Q 40.011 33.654 40.557 33.689 A 10.672 10.672 0 0 0 41.241 33.71 Q 42.491 33.71 43.541 33.31 Q 44.591 32.91 45.691 32.26 Z M 29.391 32.96 A 12.721 12.721 0 0 0 29.864 34.913 A 16.283 16.283 0 0 0 30.391 36.31 A 0.682 0.682 0 0 1 30.43 36.406 Q 30.445 36.454 30.456 36.508 A 1.299 1.299 0 0 1 30.466 36.56 A 0.413 0.413 0 0 1 30.469 36.582 Q 30.482 36.698 30.407 36.709 A 0.114 0.114 0 0 1 30.391 36.71 Q 30.291 36.71 30.091 36.61 Q 29.991 36.56 29.941 36.46 Q 29.291 35.71 28.916 35.06 Q 28.541 34.41 28.291 32.96 A 6.364 6.364 0 0 1 28.229 32.526 Q 28.182 32.105 28.166 31.56 A 19.087 19.087 0 0 1 28.158 30.999 A 17.457 17.457 0 0 1 28.191 29.91 A 11.903 11.903 0 0 1 28.239 29.345 Q 28.269 29.069 28.311 28.832 A 5.688 5.688 0 0 1 28.366 28.56 A 2.488 2.488 0 0 1 28.415 28.373 Q 28.528 28.01 28.691 28.01 A 0.036 0.036 0 0 1 28.715 28.023 Q 28.758 28.068 28.816 28.26 A 3.573 3.573 0 0 1 28.883 28.52 Q 28.915 28.667 28.941 28.835 Q 28.991 29.16 29.016 29.485 Q 29.041 29.81 29.041 29.91 A 34.303 34.303 0 0 1 29.146 30.933 A 28.205 28.205 0 0 1 29.191 31.51 Q 29.241 32.26 29.391 32.96 Z" vector-effect="non-scaling-stroke"/></g></svg>
